<?xml version="1.0" standalone="no"?>
<!DOCTYPE svg PUBLIC "-//W3C//DTD SVG 20010904//EN"
 "http://www.w3.org/TR/2001/REC-SVG-20010904/DTD/svg10.dtd">
<svg version="1.0" xmlns="http://www.w3.org/2000/svg"
 width="713.000000pt" height="503.000000pt" viewBox="0 0 713.000000 503.000000"
 preserveAspectRatio="xMidYMid meet">

<g transform="translate(0.000000,503.000000) scale(0.100000,-0.100000)"
fill="#000000" stroke="none">
<path d="M3716 3407 c3 -10 9 -15 12 -12 3 3 0 11 -7 18 -10 9 -11 8 -5 -6z"/>
<path d="M3776 3403 c-6 -14 -5 -15 5 -6 7 7 10 15 7 18 -3 3 -9 -2 -12 -12z"/>
<path d="M3666 3387 c3 -10 9 -15 12 -12 3 3 0 11 -7 18 -10 9 -11 8 -5 -6z"/>
<path d="M3883 3365 c-6 -14 -7 -25 -2 -25 11 0 22 25 17 39 -1 6 -8 -1 -15
-14z"/>
<path d="M3111 3364 c0 -11 3 -14 6 -6 3 7 2 16 -1 19 -3 4 -6 -2 -5 -13z"/>
<path d="M3818 3373 c7 -3 16 -2 19 1 4 3 -2 6 -13 5 -11 0 -14 -3 -6 -6z"/>
<path d="M2970 3360 c0 -5 5 -10 11 -10 5 0 7 5 4 10 -3 6 -8 10 -11 10 -2 0
-4 -4 -4 -10z"/>
<path d="M3156 3333 c-6 -14 -5 -15 5 -6 7 7 10 15 7 18 -3 3 -9 -2 -12 -12z"/>
<path d="M3060 3331 c0 -5 5 -13 10 -16 6 -3 10 -2 10 4 0 5 -4 13 -10 16 -5
3 -10 2 -10 -4z"/>
<path d="M3593 3324 c-3 -9 2 -23 12 -32 16 -16 17 -16 6 6 -7 12 -9 27 -6 32
3 6 4 10 0 10 -3 0 -8 -7 -12 -16z"/>
<path d="M3930 3320 c-9 -6 -10 -10 -3 -10 6 0 15 5 18 10 8 12 4 12 -15 0z"/>
<path d="M3336 3305 c-3 -8 -1 -15 4 -15 6 0 10 7 10 15 0 8 -2 15 -4 15 -2 0
-6 -7 -10 -15z"/>
<path d="M2935 3300 c3 -5 8 -10 11 -10 2 0 4 5 4 10 0 6 -5 10 -11 10 -5 0
-7 -4 -4 -10z"/>
<path d="M3275 3280 c-3 -5 -2 -10 4 -10 5 0 13 5 16 10 3 6 2 10 -4 10 -5 0
-13 -4 -16 -10z"/>
<path d="M3381 3254 c0 -11 3 -14 6 -6 3 7 2 16 -1 19 -3 4 -6 -2 -5 -13z"/>
<path d="M3930 3260 c-23 -7 -23 -8 -3 -9 12 -1 25 4 28 9 3 6 5 10 3 9 -2 -1
-14 -5 -28 -9z"/>
<path d="M2980 3210 c0 -5 5 -10 11 -10 5 0 7 5 4 10 -3 6 -8 10 -11 10 -2 0
-4 -4 -4 -10z"/>
<path d="M3920 3210 c-11 -7 -7 -10 18 -10 20 0 31 4 27 10 -8 13 -26 13 -45
0z"/>
<path d="M3995 3211 c-3 -5 -1 -12 5 -16 5 -3 10 1 10 9 0 18 -6 21 -15 7z"/>
<path d="M3300 3190 c-12 -8 -11 -10 7 -10 12 0 25 5 28 10 8 13 -15 13 -35 0z"/>
<path d="M2935 3180 c3 -5 8 -10 11 -10 2 0 4 5 4 10 0 6 -5 10 -11 10 -5 0
-7 -4 -4 -10z"/>
<path d="M3885 3180 c3 -5 8 -10 11 -10 2 0 4 5 4 10 0 6 -5 10 -11 10 -5 0
-7 -4 -4 -10z"/>
<path d="M3933 3149 c14 -8 22 -8 30 0 8 8 3 11 -18 11 -26 -1 -28 -2 -12 -11z"/>
<path d="M4000 3141 c0 -10 26 -9 36 2 4 4 -2 7 -14 7 -12 0 -22 -4 -22 -9z"/>
<path d="M2928 3133 c7 -3 16 -2 19 1 4 3 -2 6 -13 5 -11 0 -14 -3 -6 -6z"/>
<path d="M3256 3124 c-5 -14 -4 -15 9 -4 17 14 19 20 6 20 -5 0 -12 -7 -15
-16z"/>
<path d="M4043 3104 c0 -16 13 -19 21 -5 3 5 0 11 -7 14 -8 3 -14 -1 -14 -9z"/>
<path d="M3986 3093 c-6 -14 -5 -15 5 -6 7 7 10 15 7 18 -3 3 -9 -2 -12 -12z"/>
<path d="M4123 3072 c1 -12 6 -18 14 -15 16 6 13 25 -5 31 -6 2 -10 -6 -9 -16z"/>
<path d="M4300 3066 c0 -13 -5 -27 -10 -29 -6 -3 -5 -4 2 -3 14 3 31 56 17 56
-5 0 -9 -11 -9 -24z"/>
<path d="M4380 3081 c0 -10 19 -25 25 -20 1 2 -3 10 -11 17 -8 7 -14 8 -14 3z"/>
<path d="M2484 3069 c15 -9 16 -13 5 -20 -11 -7 -10 -9 4 -9 10 0 17 8 17 20
0 14 -7 20 -22 20 -22 -1 -22 -1 -4 -11z"/>
<path d="M3369 3063 c-13 -16 -12 -17 4 -4 16 13 21 21 13 21 -2 0 -10 -8 -17
-17z"/>
<path d="M3887 3069 c7 -7 15 -10 18 -7 3 3 -2 9 -12 12 -14 6 -15 5 -6 -5z"/>
<path d="M2566 3055 c-3 -8 -1 -15 4 -15 6 0 10 7 10 15 0 8 -2 15 -4 15 -2 0
-6 -7 -10 -15z"/>
<path d="M3040 3057 c0 -9 4 -18 9 -21 5 -4 8 1 7 9 -3 21 -16 31 -16 12z"/>
<path d="M4251 3054 c0 -11 3 -14 6 -6 3 7 2 16 -1 19 -3 4 -6 -2 -5 -13z"/>
<path d="M2423 3048 c-7 -9 -4 -19 10 -31 18 -19 19 -18 12 2 -5 17 -3 20 12
14 19 -7 18 -5 -8 15 -13 10 -18 10 -26 0z"/>
<path d="M2617 3053 c-4 -3 -7 -11 -7 -17 0 -6 5 -5 12 2 6 6 9 14 7 17 -3 3
-9 2 -12 -2z"/>
<path d="M3090 3050 c8 -5 20 -10 25 -10 6 0 3 5 -5 10 -8 5 -19 10 -25 10 -5
0 -3 -5 5 -10z"/>
<path d="M3766 3044 c-4 -9 -4 -19 -1 -22 3 -3 5 1 5 9 1 10 5 8 15 -5 8 -11
15 -16 15 -10 0 5 -7 17 -14 27 -13 16 -14 16 -20 1z"/>
<path d="M4430 3049 c0 -5 5 -7 10 -4 6 3 10 8 10 11 0 2 -4 4 -10 4 -5 0 -10
-5 -10 -11z"/>
<path d="M4195 3040 c-3 -5 -2 -10 4 -10 6 0 8 -7 5 -15 -4 -8 -1 -15 5 -15 6
0 11 11 11 25 0 25 -14 33 -25 15z"/>
<path d="M3609 3013 c-13 -16 -12 -17 4 -4 16 13 21 21 13 21 -2 0 -10 -8 -17
-17z"/>
<path d="M2715 3010 c-3 -5 -1 -10 4 -10 6 0 11 5 11 10 0 6 -2 10 -4 10 -3 0
-8 -4 -11 -10z"/>
<path d="M4130 3010 c0 -24 16 -42 34 -38 9 1 16 8 14 13 -2 6 -6 9 -10 8 -4
-2 -5 4 -2 12 4 8 1 15 -5 15 -6 0 -11 -6 -11 -12 0 -9 -4 -8 -10 2 -9 13 -10
13 -10 0z"/>
<path d="M4010 2995 c0 -8 4 -15 8 -15 5 0 9 7 9 15 0 8 -4 15 -9 15 -4 0 -8
-7 -8 -15z"/>
<path d="M2390 2990 c0 -5 5 -10 11 -10 5 0 7 5 4 10 -3 6 -8 10 -11 10 -2 0
-4 -4 -4 -10z"/>
<path d="M3240 2996 c0 -2 7 -7 16 -10 8 -3 12 -2 9 4 -6 10 -25 14 -25 6z"/>
<path d="M3605 2989 c-11 -4 -14 -8 -7 -8 8 -1 10 -6 6 -13 -4 -7 1 -5 11 4
22 21 18 29 -10 17z"/>
<path d="M2424 2976 c5 -14 3 -17 -11 -12 -15 6 -16 5 -5 -5 17 -18 35 1 21
21 -9 12 -10 12 -5 -4z"/>
<path d="M3305 2980 c-3 -5 -1 -10 4 -10 6 0 11 5 11 10 0 6 -2 10 -4 10 -3 0
-8 -4 -11 -10z"/>
<path d="M4215 2980 c-13 -6 -15 -9 -5 -9 8 0 22 4 30 9 18 12 2 12 -25 0z"/>
<path d="M2745 2970 c3 -5 8 -10 11 -10 2 0 4 5 4 10 0 6 -5 10 -11 10 -5 0
-7 -4 -4 -10z"/>
<path d="M3821 2944 c0 -11 3 -14 6 -6 3 7 2 16 -1 19 -3 4 -6 -2 -5 -13z"/>
<path d="M2375 2940 c-3 -6 1 -7 9 -4 18 7 21 14 7 14 -6 0 -13 -4 -16 -10z"/>
<path d="M3855 2940 c-16 -7 -17 -9 -3 -9 9 -1 20 4 23 9 7 11 7 11 -20 0z"/>
<path d="M4495 2940 c-3 -5 -2 -10 4 -10 5 0 13 5 16 10 3 6 2 10 -4 10 -5 0
-13 -4 -16 -10z"/>
<path d="M3900 2930 c-9 -6 -10 -10 -3 -10 6 0 15 5 18 10 8 12 4 12 -15 0z"/>
<path d="M3330 2920 c-13 -8 -12 -10 3 -10 9 0 17 5 17 10 0 12 -1 12 -20 0z"/>
<path d="M2379 2908 c0 -7 -2 -23 -3 -35 -1 -12 0 -22 3 -21 20 2 31 -3 26
-12 -4 -6 -10 -8 -15 -5 -5 3 -11 1 -15 -5 -3 -5 -1 -10 5 -10 6 0 8 -4 5 -10
-15 -24 6 -7 26 22 13 17 17 28 9 23 -10 -6 -12 -4 -7 8 3 9 2 19 -3 22 -6 4
-10 1 -10 -5 0 -6 -4 -9 -9 -6 -5 3 -7 15 -4 26 3 11 3 20 -1 20 -3 0 -6 -6
-7 -12z"/>
<path d="M2857 2914 c-3 -5 0 -14 7 -19 8 -7 16 -5 29 7 14 15 14 18 2 18 -8
0 -15 -6 -15 -12 0 -10 -3 -9 -9 1 -5 7 -11 9 -14 5z"/>
<path d="M3850 2910 c-9 -6 -10 -10 -3 -10 6 0 15 5 18 10 8 12 4 12 -15 0z"/>
<path d="M3568 2903 c7 -3 16 -2 19 1 4 3 -2 6 -13 5 -11 0 -14 -3 -6 -6z"/>
<path d="M3630 2906 c0 -2 7 -7 16 -10 8 -3 12 -2 9 4 -6 10 -25 14 -25 6z"/>
<path d="M4500 2896 c-24 -14 -23 -14 15 -13 22 0 32 2 22 4 -9 3 -15 9 -12
14 8 12 5 11 -25 -5z"/>
<path d="M2555 2889 c-4 -6 -5 -12 -2 -15 2 -3 7 2 10 11 7 17 1 20 -8 4z"/>
<path d="M3078 2893 c7 -3 16 -2 19 1 4 3 -2 6 -13 5 -11 0 -14 -3 -6 -6z"/>
<path d="M2450 2880 c-9 -6 -10 -10 -3 -10 6 0 15 5 18 10 8 12 4 12 -15 0z"/>
<path d="M4592 2850 c0 -19 2 -27 5 -17 2 9 2 25 0 35 -3 9 -5 1 -5 -18z"/>
<path d="M3170 2840 c-8 -5 -11 -12 -7 -17 5 -4 12 -1 16 6 7 11 9 11 14 0 3
-11 9 -10 23 5 11 11 12 15 3 8 -9 -7 -19 -8 -25 -2 -5 5 -15 6 -24 0z"/>
<path d="M4500 2840 c0 -5 5 -10 11 -10 5 0 7 5 4 10 -3 6 -8 10 -11 10 -2 0
-4 -4 -4 -10z"/>
<path d="M3800 2829 c0 -5 5 -7 10 -4 6 3 10 8 10 11 0 2 -4 4 -10 4 -5 0 -10
-5 -10 -11z"/>
<path d="M2726 2811 c-3 -5 1 -11 9 -14 9 -4 12 -1 8 9 -6 16 -10 17 -17 5z"/>
<path d="M3490 2810 c0 -6 7 -10 15 -10 8 0 15 2 15 4 0 2 -7 6 -15 10 -8 3
-15 1 -15 -4z"/>
<path d="M4065 2810 c-4 -6 -1 -9 7 -8 7 2 12 -3 11 -9 -2 -7 6 -13 17 -13 26
0 25 4 -4 24 -16 10 -27 12 -31 6z"/>
<path d="M4420 2800 c0 -5 5 -10 10 -10 6 0 10 5 10 10 0 6 -4 10 -10 10 -5 0
-10 -4 -10 -10z"/>
<path d="M4483 2783 c9 -9 19 -14 23 -11 10 10 -6 28 -24 28 -15 0 -15 -1 1
-17z"/>
<path d="M2405 2781 c-3 -5 -1 -12 5 -16 5 -3 10 -1 10 5 0 7 7 10 15 6 8 -3
15 -1 15 4 0 13 -37 13 -45 1z"/>
<path d="M3868 2783 c7 -3 16 -2 19 1 4 3 -2 6 -13 5 -11 0 -14 -3 -6 -6z"/>
<path d="M3678 2763 c7 -3 16 -2 19 1 4 3 -2 6 -13 5 -11 0 -14 -3 -6 -6z"/>
<path d="M3020 2750 c0 -5 4 -10 9 -10 6 0 13 5 16 10 3 6 -1 10 -9 10 -9 0
-16 -4 -16 -10z"/>
<path d="M4450 2744 c8 -10 15 -20 16 -22 1 -2 5 1 8 7 4 5 -4 15 -16 22 -22
12 -22 11 -8 -7z"/>
<path d="M2440 2740 c-8 -5 -12 -11 -10 -14 3 -2 14 2 24 10 22 15 10 19 -14
4z"/>
<path d="M2945 2730 c-3 -5 -1 -10 4 -10 6 0 11 5 11 10 0 6 -2 10 -4 10 -3 0
-8 -4 -11 -10z"/>
<path d="M3996 2725 c4 -8 11 -15 16 -15 6 0 5 6 -2 15 -7 8 -14 15 -16 15 -2
0 -1 -7 2 -15z"/>
<path d="M4271 2731 c-7 -5 -11 -15 -9 -22 3 -10 8 -7 17 9 13 24 12 26 -8 13z"/>
<path d="M3395 2720 c3 -5 8 -10 11 -10 2 0 4 5 4 10 0 6 -5 10 -11 10 -5 0
-7 -4 -4 -10z"/>
<path d="M2474 2705 c-4 -8 -11 -12 -17 -8 -6 3 -7 1 -3 -5 10 -16 14 -15 26
8 6 11 8 20 5 20 -3 0 -8 -7 -11 -15z"/>
<path d="M3135 2710 c-3 -5 -1 -10 4 -10 6 0 11 5 11 10 0 6 -2 10 -4 10 -3 0
-8 -4 -11 -10z"/>
<path d="M4422 2704 c10 -10 20 -15 24 -12 3 4 -5 12 -18 18 -22 12 -22 12 -6
-6z"/>
<path d="M3352 2694 c-22 -11 -20 -12 20 -12 24 0 36 3 28 6 -8 3 -17 8 -20
12 -3 3 -15 1 -28 -6z"/>
<path d="M4507 2692 c1 -8 3 -16 3 -18 0 -3 5 -2 10 1 6 3 10 11 10 16 0 6 -4
8 -9 5 -5 -4 -11 -3 -14 1 -2 5 -2 2 0 -5z"/>
<path d="M3055 2690 c-3 -5 -1 -10 4 -10 6 0 11 5 11 10 0 6 -2 10 -4 10 -3 0
-8 -4 -11 -10z"/>
<path d="M3230 2685 c-7 -9 -8 -15 -2 -15 5 0 12 7 16 15 3 8 4 15 2 15 -2 0
-9 -7 -16 -15z"/>
<path d="M3896 2674 c-10 -26 -7 -34 12 -34 12 0 14 2 4 8 -7 5 -10 16 -6 25
3 9 4 17 1 17 -3 0 -8 -7 -11 -16z"/>
<path d="M4025 2667 c10 -15 20 -25 23 -22 3 3 -5 16 -17 28 l-23 22 17 -28z"/>
<path d="M4127 2676 c-4 -9 3 -16 19 -19 18 -3 24 0 24 14 0 22 -35 26 -43 5z"/>
<path d="M2681 2664 c0 -11 3 -14 6 -6 3 7 2 16 -1 19 -3 4 -6 -2 -5 -13z"/>
<path d="M2815 2660 c-3 -6 1 -7 9 -4 18 7 21 14 7 14 -6 0 -13 -4 -16 -10z"/>
<path d="M2956 2643 c-6 -14 -5 -15 5 -6 7 7 10 15 7 18 -3 3 -9 -2 -12 -12z"/>
<path d="M3195 2650 c-3 -5 1 -10 10 -10 9 0 13 5 10 10 -3 6 -8 10 -10 10 -2
0 -7 -4 -10 -10z"/>
<path d="M3368 2653 c7 -3 16 -2 19 1 4 3 -2 6 -13 5 -11 0 -14 -3 -6 -6z"/>
<path d="M3756 2623 c-6 -14 -5 -15 5 -6 7 7 10 15 7 18 -3 3 -9 -2 -12 -12z"/>
<path d="M3055 2611 c-8 -27 -2 -36 13 -18 6 7 7 18 3 26 -7 10 -10 8 -16 -8z"/>
<path d="M3519 2613 c-13 -16 -12 -17 4 -4 16 13 21 21 13 21 -2 0 -10 -8 -17
-17z"/>
<path d="M2782 2598 c-18 -18 -14 -30 7 -19 10 6 21 7 25 3 4 -3 4 1 0 11 -7
20 -16 21 -32 5z"/>
<path d="M4026 2597 c3 -10 9 -15 12 -12 3 3 0 11 -7 18 -10 9 -11 8 -5 -6z"/>
<path d="M4071 2501 c-162 -220 -293 -435 -434 -716 -77 -153 -150 -315 -144
-321 2 -2 41 63 88 144 47 81 191 329 321 552 257 443 261 450 254 450 -2 0
-41 -49 -85 -109z"/>
<path d="M4564 2586 c1 -18 7 -26 20 -26 19 0 19 0 0 23 -10 12 -20 23 -20 25
-1 2 -1 -8 0 -22z"/>
<path d="M3750 2590 c0 -5 5 -10 11 -10 5 0 7 5 4 10 -3 6 -8 10 -11 10 -2 0
-4 -4 -4 -10z"/>
<path d="M4245 2590 c3 -5 11 -10 16 -10 6 0 7 5 4 10 -3 6 -11 10 -16 10 -6
0 -7 -4 -4 -10z"/>
<path d="M3660 2570 c-9 -6 -10 -10 -3 -10 6 0 15 5 18 10 8 12 4 12 -15 0z"/>
<path d="M3864 2566 c11 -9 24 -16 30 -16 12 0 7 5 -24 19 -24 11 -24 11 -6
-3z"/>
<path d="M4175 2560 c3 -5 16 -10 28 -10 18 0 19 2 7 10 -20 13 -43 13 -35 0z"/>
<path d="M3591 2543 c-1 -12 -5 -25 -11 -28 -15 -9 -12 -25 4 -25 17 0 25 29
15 55 -7 19 -8 19 -8 -2z"/>
<path d="M4630 2544 c0 -14 3 -14 15 -4 8 7 15 14 15 16 0 2 -7 4 -15 4 -8 0
-15 -7 -15 -16z"/>
<path d="M2765 2539 c-4 -6 -5 -12 -2 -15 2 -3 7 2 10 11 7 17 1 20 -8 4z"/>
<path d="M4377 2530 c3 -11 9 -22 13 -25 5 -3 6 4 3 15 -3 11 -9 22 -13 25 -5
3 -6 -4 -3 -15z"/>
<path d="M2490 2535 c0 -5 5 -17 10 -25 5 -8 10 -10 10 -5 0 6 -5 17 -10 25
-5 8 -10 11 -10 5z"/>
<path d="M3860 2530 c0 -5 5 -10 11 -10 5 0 7 5 4 10 -3 6 -8 10 -11 10 -2 0
-4 -4 -4 -10z"/>
<path d="M4420 2529 c0 -5 5 -7 10 -4 6 3 10 8 10 11 0 2 -4 4 -10 4 -5 0 -10
-5 -10 -11z"/>
<path d="M4730 2530 c0 -6 4 -9 9 -6 5 4 12 1 14 -4 3 -6 4 -5 3 2 -3 15 -26
23 -26 8z"/>
<path d="M3703 2502 c14 -15 15 -21 5 -25 -7 -3 -3 -4 8 -4 26 1 22 17 -9 36
-22 14 -22 13 -4 -7z"/>
<path d="M4566 2504 c-4 -9 -4 -19 -1 -22 3 -3 5 1 5 9 0 11 2 11 10 -1 8 -13
10 -13 10 2 0 23 -17 31 -24 12z"/>
<path d="M2200 2501 c0 -6 4 -13 10 -16 6 -3 7 1 4 9 -7 18 -14 21 -14 7z"/>
<path d="M2255 2481 c0 -16 3 -27 8 -24 4 2 7 15 7 29 0 13 -3 24 -7 24 -5 0
-8 -13 -8 -29z"/>
<path d="M2930 2490 c-6 -11 -8 -20 -6 -20 3 0 10 9 16 20 6 11 8 20 6 20 -3
0 -10 -9 -16 -20z"/>
<path d="M4623 2491 c0 -11 5 -17 9 -15 11 7 10 34 -1 34 -6 0 -9 -9 -8 -19z"/>
<path d="M4680 2494 c0 -8 5 -12 10 -9 6 4 8 11 5 16 -9 14 -15 11 -15 -7z"/>
<path d="M2822 2480 c0 -14 2 -19 5 -12 2 6 2 18 0 25 -3 6 -5 1 -5 -13z"/>
<path d="M4726 2484 c-4 -9 -4 -19 -1 -22 2 -3 7 3 11 12 4 9 4 19 1 22 -2 3
-7 -3 -11 -12z"/>
<path d="M4800 2491 c0 -5 7 -12 16 -15 14 -5 15 -4 4 9 -14 17 -20 19 -20 6z"/>
<path d="M4190 2486 c0 -2 8 -10 18 -17 15 -13 16 -12 3 4 -13 16 -21 21 -21
13z"/>
<path d="M4775 2460 c-3 -5 -1 -10 4 -10 6 0 11 5 11 10 0 6 -2 10 -4 10 -3 0
-8 -4 -11 -10z"/>
<path d="M2142 2444 c-7 -8 -8 -14 -3 -14 5 0 16 -3 25 -6 10 -4 16 -1 16 9 0
21 -23 27 -38 11z"/>
<path d="M3695 2450 c-3 -5 -2 -10 4 -10 5 0 13 5 16 10 3 6 2 10 -4 10 -5 0
-13 -4 -16 -10z"/>
<path d="M3796 2445 c6 -14 -116 -66 -141 -60 -11 2 -20 4 -20 5 0 3 -94 12
-140 13 -27 1 -53 6 -57 12 -5 7 -8 6 -8 -1 0 -6 -15 -11 -32 -12 -18 0 -60
-6 -94 -13 -46 -9 -69 -9 -94 -1 -18 7 -44 12 -56 12 -13 0 -24 3 -24 8 0 4
-54 7 -119 7 -66 0 -117 -2 -115 -4 4 -4 -62 -28 -115 -42 -15 -4 -50 -30 -83
-62 -11 -10 -26 -16 -33 -13 -9 3 -12 -1 -10 -14 2 -11 -1 -23 -7 -26 -14 -9
-58 -110 -58 -135 0 -15 -5 -19 -15 -15 -8 3 -15 1 -15 -4 0 -6 5 -10 11 -10
7 0 9 -28 6 -85 -2 -47 0 -85 4 -85 5 0 12 -12 15 -27 7 -30 48 -93 83 -130
12 -12 21 -26 22 -30 1 -21 187 -90 257 -95 26 -2 32 -6 29 -20 -3 -10 -1 -16
4 -12 5 3 9 12 9 20 0 17 21 18 39 2 11 -10 13 -10 7 0 -5 9 6 12 46 12 29 0
85 9 123 20 42 12 80 18 95 14 44 -12 53 -14 136 -20 52 -4 88 -3 100 4 15 9
-4 11 -83 12 -79 0 -105 4 -117 16 -9 8 -16 11 -16 6 0 -6 -9 -8 -19 -5 -22 6
-24 14 -46 208 -15 132 -20 369 -9 438 8 47 33 50 35 5 l2 -33 6 35 c5 29 11
36 36 41 40 9 189 9 245 1 40 -6 46 -11 51 -37 l7 -30 1 28 c1 36 22 31 34 -9
4 -16 12 -112 16 -214 4 -102 9 -162 11 -135 1 28 2 56 1 63 -2 14 15 16 24 2
3 -5 11 -10 18 -10 6 0 -1 11 -16 25 -21 21 -27 35 -27 70 l0 44 55 -19 c30
-10 55 -15 55 -11 0 4 -24 15 -54 24 -50 16 -54 20 -59 54 -4 20 -4 40 -2 44
4 6 53 -3 151 -27 17 -4 23 2 33 37 8 27 30 59 63 90 27 27 45 49 40 49 -22 0
-101 -90 -113 -128 -11 -40 -11 -40 -48 -30 -20 5 -39 13 -44 17 -10 10 38
103 69 132 20 19 40 25 97 30 71 5 70 5 -39 10 -73 2 -110 1 -108 -6z m9 -66
c-19 -29 -38 -63 -41 -76 -6 -22 -11 -24 -37 -19 -37 8 -34 4 -42 47 -7 36 -7
36 52 61 63 28 84 36 96 37 4 1 -9 -22 -28 -50z m-736 5 c27 -20 81 -101 81
-124 0 -10 -15 -20 -40 -27 l-40 -10 -19 41 c-16 38 -70 94 -117 123 -16 10
-8 12 46 12 45 1 73 -4 89 -15z m136 -9 l40 -11 -4 -49 c-3 -53 -12 -65 -48
-65 -17 0 -27 10 -38 36 -8 20 -28 52 -45 70 -16 19 -30 37 -30 39 0 7 75 -5
125 -20z m-253 -16 c45 -29 98 -98 98 -128 0 -6 -12 -16 -27 -22 -24 -9 -31
-5 -82 44 -31 30 -76 66 -101 80 -43 25 -44 26 -20 35 14 5 32 12 40 15 29 11
44 7 92 -24z m-61 -75 c27 -19 58 -48 69 -63 l19 -28 -41 -16 -41 -16 -43 38
c-24 21 -69 49 -99 62 -30 13 -55 26 -55 29 0 3 17 17 38 32 35 25 39 25 71
12 18 -8 55 -30 82 -50z m-135 -33 c23 -11 61 -36 84 -57 l41 -38 -37 -22 -37
-23 -39 33 c-21 18 -56 39 -78 46 -52 17 -54 22 -29 54 24 31 40 32 95 7z
m482 -47 l-3 -36 -113 -38 c-127 -43 -260 -104 -326 -150 l-45 -30 -30 37 -31
37 81 52 c126 81 342 161 437 163 32 1 33 0 30 -35z m-533 -34 c23 -11 52 -31
64 -43 l21 -24 -51 -32 c-59 -36 -65 -34 -105 35 -20 35 -23 47 -14 63 14 26
33 26 85 1z m535 -60 c0 -35 -5 -43 -42 -71 -90 -65 -288 -149 -352 -149 -11
0 -34 11 -51 24 -25 20 -28 26 -16 40 31 37 391 195 449 196 7 0 12 -15 12
-40z m-589 -51 c118 -175 317 -301 545 -346 102 -20 96 -27 -43 -49 l-98 -17
-69 28 c-38 15 -96 44 -130 64 -76 45 -190 158 -234 233 -30 50 -33 62 -27
102 4 25 9 46 11 46 2 0 22 -28 45 -61z m576 -133 c-43 -36 -239 -128 -261
-122 -11 3 -43 20 -70 37 l-50 32 82 23 c87 25 186 72 262 123 l45 31 7 -53
c6 -46 5 -54 -15 -71z m-573 -21 c65 -84 156 -158 261 -212 l90 -45 -60 7
c-119 14 -233 74 -286 151 -32 47 -59 114 -59 147 0 24 -3 27 54 -48z m605
-62 c1 -28 -5 -34 -64 -67 l-64 -35 -56 19 c-30 10 -60 22 -66 26 -6 3 45 34
113 68 135 67 135 67 137 -11z m11 -94 c0 -34 -3 -40 -17 -35 -10 3 -35 8 -55
12 -21 3 -38 9 -38 13 0 8 80 49 98 50 8 1 12 -13 12 -40z"/>
<path d="M2678 2443 c-5 -26 -2 -61 4 -57 5 3 7 19 6 35 -2 28 -6 37 -10 22z"/>
<path d="M3085 2430 c-3 -5 -1 -10 4 -10 6 0 11 5 11 10 0 6 -2 10 -4 10 -3 0
-8 -4 -11 -10z"/>
<path d="M3655 2430 c3 -5 8 -10 11 -10 2 0 4 5 4 10 0 6 -5 10 -11 10 -5 0
-7 -4 -4 -10z"/>
<path d="M4820 2430 c-9 -6 -10 -10 -3 -10 6 0 15 5 18 10 8 12 4 12 -15 0z"/>
<path d="M4085 2421 c-19 -8 -19 -8 3 -15 30 -10 28 -18 -13 -40 -19 -10 -42
-28 -52 -40 -18 -20 -18 -20 7 -3 14 9 42 26 63 37 l37 21 35 -27 c19 -14 35
-29 35 -33 0 -4 -20 -17 -45 -29 -25 -12 -66 -41 -90 -63 -41 -38 -48 -41 -71
-30 -62 28 -41 7 29 -29 43 -22 105 -58 138 -81 63 -45 63 -42 16 -96 l-19
-21 -47 33 c-58 41 -211 118 -211 106 0 -5 13 -14 30 -19 36 -13 157 -83 190
-111 l25 -20 -31 -32 -32 -32 -73 23 c-41 12 -95 33 -121 46 -56 28 -89 32
-38 4 29 -16 145 -60 199 -76 20 -6 0 -26 -58 -58 l-50 -27 -82 41 c-44 23
-83 39 -86 36 -3 -3 29 -22 70 -42 42 -21 74 -41 71 -45 -2 -4 -29 -17 -60
-28 l-55 -21 -45 26 c-24 14 -44 22 -44 17 0 -4 15 -16 33 -27 32 -18 32 -18
9 -27 -13 -5 -36 -10 -52 -11 -19 -1 -32 -10 -40 -26 -9 -20 -8 -23 3 -19 8 3
34 -1 58 -10 24 -8 60 -17 79 -19 19 -2 51 -7 70 -10 19 -4 53 -6 75 -5 36 1
38 0 22 -13 -16 -12 -16 -14 -1 -20 21 -8 32 -7 17 2 -8 5 -8 11 1 24 9 12 30
18 64 20 29 2 52 6 52 11 0 4 5 7 12 7 7 0 38 18 69 40 63 44 66 45 72 28 2
-7 3 -3 1 8 -4 24 42 114 58 114 6 0 4 -7 -3 -17 -13 -15 -12 -15 7 -3 21 13
27 33 17 60 -4 13 -6 12 -12 -2 -3 -10 -5 38 -5 105 1 67 -2 127 -7 133 -5 6
-7 20 -4 33 2 12 0 19 -6 16 -5 -4 -9 -2 -9 4 0 5 -5 22 -12 38 -6 15 -10 32
-9 36 1 5 -3 6 -8 3 -5 -4 -12 3 -16 14 -4 11 -17 32 -31 45 -13 13 -24 29
-24 35 0 5 -3 9 -7 8 -14 -3 -83 44 -77 53 6 10 6 10 -21 0z m153 -153 l20
-32 -41 -19 c-23 -10 -56 -32 -73 -48 l-31 -30 -37 17 c-20 10 -36 20 -36 24
0 13 77 79 115 99 52 28 59 27 83 -11z m39 -79 c11 -28 9 -37 -13 -75 -14 -24
-30 -46 -34 -49 -14 -9 -101 58 -98 75 3 15 102 80 123 80 6 0 16 -14 22 -31z
m27 -105 c7 -56 -18 -110 -98 -203 -67 -79 -135 -132 -237 -183 l-83 -41 -74
12 c-40 7 -90 18 -109 25 l-36 12 74 18 c220 53 409 183 511 350 18 31 36 56
39 56 4 0 9 -21 13 -46z m1 -136 c-8 -68 -57 -169 -98 -204 -55 -47 -133 -76
-211 -81 l-71 -4 59 31 c33 17 80 46 106 65 62 45 162 152 191 204 12 23 25
41 27 41 2 0 1 -24 -3 -52z"/>
<path d="M2132 2386 c7 -8 15 -12 17 -11 5 6 -10 25 -20 25 -5 0 -4 -6 3 -14z"/>
<path d="M4443 2393 c-17 -6 -17 -20 0 -20 8 0 14 6 14 14 0 7 -1 13 -1 12 -1
0 -7 -3 -13 -6z"/>
<path d="M2175 2380 c-3 -5 -1 -10 4 -10 6 0 11 5 11 10 0 6 -2 10 -4 10 -3 0
-8 -4 -11 -10z"/>
<path d="M2060 2372 c0 -6 -8 -13 -17 -15 -16 -4 -16 -5 -1 -6 18 -1 34 16 24
26 -3 4 -6 1 -6 -5z"/>
<path d="M2080 2376 c0 -2 8 -10 18 -17 15 -13 16 -12 3 4 -13 16 -21 21 -21
13z"/>
<path d="M2670 2345 c-7 -9 -10 -18 -7 -21 3 -3 10 4 17 15 13 25 8 27 -10 6z"/>
<path d="M4330 2350 c0 -5 5 -10 10 -10 6 0 10 5 10 10 0 6 -4 10 -10 10 -5 0
-10 -4 -10 -10z"/>
<path d="M4726 2348 c3 -5 10 -6 15 -3 13 9 11 12 -6 12 -8 0 -12 -4 -9 -9z"/>
<path d="M4824 2348 c1 -7 11 -15 21 -16 11 -3 15 0 10 7 -3 6 -10 9 -15 6 -4
-3 -11 0 -13 5 -3 6 -4 5 -3 -2z"/>
<path d="M2481 2324 c0 -11 3 -14 6 -6 3 7 2 16 -1 19 -3 4 -6 -2 -5 -13z"/>
<path d="M4238 2333 c6 -2 18 -2 25 0 6 3 1 5 -13 5 -14 0 -19 -2 -12 -5z"/>
<path d="M4528 2323 c7 -3 16 -2 19 1 4 3 -2 6 -13 5 -11 0 -14 -3 -6 -6z"/>
<path d="M4895 2320 c3 -5 8 -10 11 -10 2 0 4 5 4 10 0 6 -5 10 -11 10 -5 0
-7 -4 -4 -10z"/>
<path d="M2055 2310 c-3 -6 1 -7 9 -4 18 7 21 14 7 14 -6 0 -13 -4 -16 -10z"/>
<path d="M4320 2305 c0 -8 2 -15 4 -15 2 0 6 7 10 15 3 8 1 15 -4 15 -6 0 -10
-7 -10 -15z"/>
<path d="M2070 2290 c-9 -6 -10 -10 -3 -10 6 0 15 5 18 10 8 12 4 12 -15 0z"/>
<path d="M4535 2290 c3 -5 8 -10 11 -10 2 0 4 5 4 10 0 6 -5 10 -11 10 -5 0
-7 -4 -4 -10z"/>
<path d="M4840 2286 c0 -2 7 -6 15 -10 8 -3 15 -1 15 4 0 6 -7 10 -15 10 -8 0
-15 -2 -15 -4z"/>
<path d="M2085 2260 c3 -5 11 -10 16 -10 6 0 7 5 4 10 -3 6 -11 10 -16 10 -6
0 -7 -4 -4 -10z"/>
<path d="M4760 2260 c0 -5 5 -10 11 -10 5 0 7 5 4 10 -3 6 -8 10 -11 10 -2 0
-4 -4 -4 -10z"/>
<path d="M2386 2233 c-6 -14 -5 -15 5 -6 7 7 10 15 7 18 -3 3 -9 -2 -12 -12z"/>
<path d="M3642 2220 c0 -19 2 -27 5 -17 2 9 2 25 0 35 -3 9 -5 1 -5 -18z"/>
<path d="M4830 2245 c0 -18 19 -40 26 -32 4 4 0 15 -9 24 -9 10 -17 13 -17 8z"/>
<path d="M3287 2233 c-11 -10 -8 -53 3 -53 6 0 10 14 10 30 0 31 -2 35 -13 23z"/>
<path d="M2090 2210 c0 -5 6 -10 14 -10 8 0 18 5 21 10 3 6 -3 10 -14 10 -12
0 -21 -4 -21 -10z"/>
<path d="M4740 2199 c0 -5 5 -7 10 -4 6 3 10 8 10 11 0 2 -4 4 -10 4 -5 0 -10
-5 -10 -11z"/>
<path d="M4361 2174 c0 -11 3 -14 6 -6 3 7 2 16 -1 19 -3 4 -6 -2 -5 -13z"/>
<path d="M2130 2170 c-8 -5 -10 -10 -5 -10 6 0 17 5 25 10 8 5 11 10 5 10 -5
0 -17 -5 -25 -10z"/>
<path d="M4815 2170 c3 -5 8 -10 11 -10 2 0 4 5 4 10 0 6 -5 10 -11 10 -5 0
-7 -4 -4 -10z"/>
<path d="M4494 2145 c-4 -14 -4 -29 0 -32 3 -4 6 3 6 13 0 11 5 25 12 32 9 9
9 12 0 12 -6 0 -14 -11 -18 -25z"/>
<path d="M4781 2144 c0 -11 3 -14 6 -6 3 7 2 16 -1 19 -3 4 -6 -2 -5 -13z"/>
<path d="M2170 2140 c-8 -5 -12 -12 -9 -15 4 -3 12 1 19 10 14 17 11 19 -10 5z"/>
<path d="M4840 2130 c0 -5 5 -10 11 -10 5 0 7 5 4 10 -3 6 -8 10 -11 10 -2 0
-4 -4 -4 -10z"/>
<path d="M4425 2120 c-3 -5 -13 -6 -22 -3 -13 5 -15 2 -10 -11 4 -10 7 -23 7
-29 0 -7 5 -4 11 6 5 9 16 17 23 17 8 0 18 6 24 13 8 10 6 13 -8 14 -11 1 -22
-2 -25 -7z"/>
<path d="M2211 2111 c-8 -6 -9 -11 -3 -15 6 -3 14 -1 17 5 9 14 2 20 -14 10z"/>
<path d="M4534 2094 c1 -26 11 -32 19 -11 2 6 -1 17 -8 24 -10 9 -13 7 -11
-13z"/>
<path d="M2261 2094 c0 -11 3 -14 6 -6 3 7 2 16 -1 19 -3 4 -6 -2 -5 -13z"/>
<path d="M3632 2080 c0 -19 2 -27 5 -17 2 9 2 25 0 35 -3 9 -5 1 -5 -18z"/>
<path d="M3292 2070 c0 -19 2 -27 5 -17 2 9 2 25 0 35 -3 9 -5 1 -5 -18z"/>
<path d="M3412 2088 c-21 -21 -13 -57 23 -96 l35 -37 35 37 c37 40 45 77 21
97 -11 9 -20 10 -35 1 -15 -7 -27 -8 -40 0 -24 13 -24 13 -39 -2z"/>
<path d="M4482 2080 c7 -10 14 -18 15 -16 6 6 -9 36 -18 36 -5 0 -4 -9 3 -20z"/>
<path d="M4790 2096 c0 -2 7 -7 16 -10 8 -3 12 -2 9 4 -6 10 -25 14 -25 6z"/>
<path d="M4389 2023 c-7 -21 -12 -42 -11 -46 1 -4 -8 -2 -20 4 -20 11 -21 10
-10 -3 7 -9 10 -23 6 -32 -9 -23 23 -21 35 2 10 18 24 112 17 112 -3 0 -10
-17 -17 -37z"/>
<path d="M4528 2053 c7 -3 16 -2 19 1 4 3 -2 6 -13 5 -11 0 -14 -3 -6 -6z"/>
<path d="M2422 2000 c0 -14 2 -19 5 -12 2 6 2 18 0 25 -3 6 -5 1 -5 -13z"/>
<path d="M4643 1985 c-3 -9 -3 -18 -1 -21 3 -3 8 4 11 16 6 23 -1 27 -10 5z"/>
<path d="M3303 1935 c0 -22 2 -30 4 -17 2 12 2 30 0 40 -3 9 -5 -1 -4 -23z"/>
<path d="M3620 1940 c0 -16 2 -30 4 -30 2 0 6 14 8 30 3 17 1 30 -4 30 -4 0
-8 -13 -8 -30z"/>
<path d="M2405 1940 c10 -11 20 -20 22 -20 2 0 -2 9 -9 20 -7 11 -17 20 -22
20 -5 0 -1 -9 9 -20z"/>
<path d="M4807 1930 c-3 -13 -1 -18 6 -13 6 4 8 0 4 -10 -4 -11 -2 -14 9 -10
10 4 12 9 5 16 -5 5 -7 16 -4 23 3 8 1 14 -5 14 -5 0 -12 -9 -15 -20z"/>
<path d="M4410 1884 c0 -14 4 -23 9 -20 5 3 7 15 4 26 -7 28 -13 25 -13 -6z"/>
<path d="M4375 1890 c3 -5 8 -10 11 -10 2 0 4 5 4 10 0 6 -5 10 -11 10 -5 0
-7 -4 -4 -10z"/>
<path d="M4757 1893 c-6 -10 -3 -51 5 -58 3 -3 9 6 12 21 7 26 -6 55 -17 37z"/>
<path d="M4867 1875 c3 -8 9 -12 14 -9 12 7 11 11 -5 17 -10 4 -13 1 -9 -8z"/>
<path d="M4446 1863 c-6 -14 -5 -15 5 -6 7 7 10 15 7 18 -3 3 -9 -2 -12 -12z"/>
<path d="M4510 1860 c-13 -8 -12 -10 3 -10 9 0 17 5 17 10 0 12 -1 12 -20 0z"/>
<path d="M2270 1844 c0 -8 5 -12 10 -9 6 4 8 11 5 16 -9 14 -15 11 -15 -7z"/>
<path d="M2559 1843 c-13 -16 -12 -17 4 -4 16 13 21 21 13 21 -2 0 -10 -8 -17
-17z"/>
<path d="M4800 1829 c-11 -19 -10 -20 10 -9 11 6 18 15 15 21 -9 13 -13 11
-25 -12z"/>
<path d="M4897 1830 c-3 -12 0 -20 7 -20 6 0 12 9 12 20 0 11 -3 20 -7 20 -4
0 -9 -9 -12 -20z"/>
<path d="M3609 1812 c-3 -20 -2 -29 4 -23 5 5 7 19 5 32 -3 20 -5 19 -9 -9z"/>
<path d="M4370 1829 c0 -5 -4 -7 -10 -4 -12 7 -13 -5 -2 -22 5 -8 13 -9 22 -3
10 6 11 10 3 10 -7 0 -10 7 -7 15 4 8 3 15 0 15 -3 0 -6 -5 -6 -11z"/>
<path d="M3310 1814 c0 -10 5 -26 10 -34 8 -11 9 -7 4 15 -8 37 -14 45 -14 19z"/>
<path d="M4531 1820 c6 -4 20 -5 32 -2 15 4 18 2 12 -8 -5 -9 -4 -11 4 -6 19
12 3 25 -30 24 -17 -1 -25 -4 -18 -8z"/>
<path d="M4715 1810 c-16 -7 -17 -9 -3 -9 9 -1 20 4 23 9 7 11 7 11 -20 0z"/>
<path d="M4845 1801 c-3 -6 -11 -9 -16 -6 -5 4 -9 1 -9 -4 0 -6 6 -11 14 -11
16 0 31 18 23 26 -3 3 -8 0 -12 -5z"/>
<path d="M4590 1787 c0 -3 11 -12 25 -21 23 -15 25 -15 25 0 0 10 -3 14 -6 11
-4 -3 -15 -2 -25 4 -11 5 -19 8 -19 6z"/>
<path d="M4942 1770 c0 -14 2 -19 5 -12 2 6 2 18 0 25 -3 6 -5 1 -5 -13z"/>
<path d="M4860 1750 c-12 -8 -11 -10 7 -10 12 0 25 5 28 10 8 13 -15 13 -35 0z"/>
<path d="M2640 1729 c0 -5 5 -7 10 -4 6 3 10 8 10 11 0 2 -4 4 -10 4 -5 0 -10
-5 -10 -11z"/>
<path d="M2117 1723 c-11 -10 -8 -25 3 -18 6 4 19 1 28 -6 13 -11 12 -8 -2 9
-22 25 -20 24 -29 15z"/>
<path d="M4625 1720 c3 -5 8 -10 11 -10 2 0 4 5 4 10 0 6 -5 10 -11 10 -5 0
-7 -4 -4 -10z"/>
<path d="M4827 1716 c-3 -8 0 -19 7 -25 10 -9 12 -6 8 14 -5 29 -8 31 -15 11z"/>
<path d="M4878 1708 c5 -5 16 -8 23 -6 8 3 3 7 -10 11 -17 4 -21 3 -13 -5z"/>
<path d="M2411 1695 c9 -11 15 -28 14 -37 -2 -10 2 -15 10 -11 8 2 13 13 12
23 -1 11 -3 17 -6 15 -2 -3 -14 3 -25 12 -21 18 -21 18 -5 -2z"/>
<path d="M4321 1681 c-8 -5 -9 -11 -3 -15 5 -3 12 1 16 9 6 17 6 18 -13 6z"/>
<path d="M2385 1661 c-3 -5 -1 -12 5 -16 5 -3 10 1 10 9 0 18 -6 21 -15 7z"/>
<path d="M2640 1661 c0 -6 4 -13 10 -16 6 -3 7 1 4 9 -7 18 -14 21 -14 7z"/>
<path d="M4895 1660 c-16 -7 -17 -9 -3 -9 9 -1 20 4 23 9 7 11 7 11 -20 0z"/>
<path d="M2675 1651 c-3 -5 -1 -12 5 -16 5 -3 10 1 10 9 0 18 -6 21 -15 7z"/>
<path d="M4481 1644 c0 -11 3 -14 6 -6 3 7 2 16 -1 19 -3 4 -6 -2 -5 -13z"/>
<path d="M4523 1653 c-15 -5 -17 -23 -4 -23 5 0 11 7 15 15 3 8 4 15 3 14 -1
0 -8 -3 -14 -6z"/>
<path d="M2129 1633 c-13 -16 -12 -17 4 -4 9 7 17 15 17 17 0 8 -8 3 -21 -13z"/>
<path d="M3221 1624 c0 -11 3 -14 6 -6 3 7 2 16 -1 19 -3 4 -6 -2 -5 -13z"/>
<path d="M4299 1623 c-13 -16 -12 -17 4 -4 9 7 17 15 17 17 0 8 -8 3 -21 -13z"/>
<path d="M4346 1626 c3 -8 13 -17 21 -20 13 -5 14 -4 3 9 -11 13 -10 14 5 9
13 -5 16 -4 11 4 -11 18 -47 15 -40 -2z"/>
<path d="M4550 1629 c0 -5 5 -7 10 -4 6 3 10 8 10 11 0 2 -4 4 -10 4 -5 0 -10
-5 -10 -11z"/>
<path d="M2438 1623 c7 -3 16 -2 19 1 4 3 -2 6 -13 5 -11 0 -14 -3 -6 -6z"/>
<path d="M2618 1623 c7 -3 16 -2 19 1 4 3 -2 6 -13 5 -11 0 -14 -3 -6 -6z"/>
<path d="M2766 1617 c3 -10 9 -15 12 -12 3 3 0 11 -7 18 -10 9 -11 8 -5 -6z"/>
<path d="M2801 1623 c-1 -6 -4 -20 -7 -30 -5 -17 -5 -17 6 0 6 10 9 23 6 30
-3 9 -5 9 -5 0z"/>
<path d="M3011 1614 c0 -11 3 -14 6 -6 3 7 2 16 -1 19 -3 4 -6 -2 -5 -13z"/>
<path d="M4891 1611 c-8 -5 -9 -11 -3 -15 5 -3 12 1 16 9 6 17 6 18 -13 6z"/>
<path d="M3918 1603 c7 -3 16 -2 19 1 4 3 -2 6 -13 5 -11 0 -14 -3 -6 -6z"/>
<path d="M4420 1606 c0 -2 8 -10 18 -17 15 -13 16 -12 3 4 -13 16 -21 21 -21
13z"/>
<path d="M2868 1593 c7 -3 16 -2 19 1 4 3 -2 6 -13 5 -11 0 -14 -3 -6 -6z"/>
<path d="M4000 1589 c0 -5 5 -7 10 -4 6 3 10 8 10 11 0 2 -4 4 -10 4 -5 0 -10
-5 -10 -11z"/>
<path d="M4601 1584 c0 -11 3 -14 6 -6 3 7 2 16 -1 19 -3 4 -6 -2 -5 -13z"/>
<path d="M2676 1582 c-3 -5 1 -9 9 -9 8 0 12 4 9 9 -3 4 -7 8 -9 8 -2 0 -6 -4
-9 -8z"/>
<path d="M3077 1579 c7 -7 15 -10 18 -7 3 3 -2 9 -12 12 -14 6 -15 5 -6 -5z"/>
<path d="M3780 1581 c0 -6 4 -13 10 -16 6 -3 7 1 4 9 -7 18 -14 21 -14 7z"/>
<path d="M4149 1573 c-13 -16 -12 -17 4 -4 16 13 21 21 13 21 -2 0 -10 -8 -17
-17z"/>
<path d="M3729 1563 c-13 -17 -13 -17 6 -3 11 8 22 16 24 17 2 2 0 3 -6 3 -6
0 -17 -8 -24 -17z"/>
<path d="M4007 1566 c-10 -8 -14 -16 -10 -19 5 -3 14 3 21 14 14 22 13 23 -11
5z"/>
<path d="M4870 1559 c0 -5 5 -7 10 -4 6 3 10 8 10 11 0 2 -4 4 -10 4 -5 0 -10
-5 -10 -11z"/>
<path d="M4026 1535 c-9 -26 -7 -32 5 -12 6 10 9 21 6 23 -2 3 -7 -2 -11 -11z"/>
<path d="M4135 1530 c-10 -11 -14 -20 -9 -20 5 0 15 9 22 20 7 11 11 20 9 20
-2 0 -12 -9 -22 -20z"/>
<path d="M2146 1532 c-2 -4 -1 -14 3 -21 6 -9 10 -7 14 8 5 20 -7 29 -17 13z"/>
<path d="M2916 1524 c-5 -14 -4 -15 9 -4 17 14 19 20 6 20 -5 0 -12 -7 -15
-16z"/>
<path d="M3790 1530 c0 -6 -16 -10 -35 -8 -19 1 -37 -1 -41 -5 -4 -4 16 -7 44
-7 42 0 50 3 46 15 -7 17 -14 20 -14 5z"/>
<path d="M4644 1533 c4 -4 19 -9 34 -11 35 -4 25 5 -12 12 -16 3 -25 2 -22 -1z"/>
<path d="M4830 1532 c0 -12 19 -26 26 -19 2 2 -2 10 -11 17 -9 8 -15 8 -15 2z"/>
<path d="M3453 1523 c9 -2 23 -2 30 0 6 3 -1 5 -18 5 -16 0 -22 -2 -12 -5z"/>
<path d="M3587 1523 c18 -2 50 -2 70 0 21 2 7 4 -32 4 -38 0 -55 -2 -38 -4z"/>
<path d="M2190 1505 c-7 -9 -11 -18 -8 -20 3 -3 11 1 18 10 7 9 11 18 8 20 -3
3 -11 -1 -18 -10z"/>
<path d="M3303 1513 c15 -2 39 -2 55 0 15 2 2 4 -28 4 -30 0 -43 -2 -27 -4z"/>
<path d="M2986 1497 c3 -10 9 -15 12 -12 3 3 0 11 -7 18 -10 9 -11 8 -5 -6z"/>
<path d="M3119 1499 c-8 -5 -25 -9 -39 -10 -14 -1 -18 -3 -10 -5 8 -2 35 -1
60 4 34 6 40 9 24 14 -12 3 -28 2 -35 -3z"/>
<path d="M3213 1503 c9 -2 25 -2 35 0 9 3 1 5 -18 5 -19 0 -27 -2 -17 -5z"/>
<path d="M3858 1503 c12 -2 30 -2 40 0 9 3 -1 5 -23 4 -22 0 -30 -2 -17 -4z"/>
<path d="M3960 1500 c-33 -5 -33 -6 19 -13 29 -5 56 -6 59 -2 3 3 -4 5 -15 5
-12 0 -23 3 -25 8 -1 4 -19 5 -38 2z"/>
<path d="M2243 1488 c-21 -27 -24 -38 -10 -32 8 3 17 14 20 25 6 22 3 24 -10
7z"/>
<path d="M4662 1488 c-7 -7 -11 -21 -11 -32 1 -21 1 -21 6 -1 3 11 10 26 15
33 13 15 6 16 -10 0z"/>
<path d="M4751 1484 c0 -11 3 -14 6 -6 3 7 2 16 -1 19 -3 4 -6 -2 -5 -13z"/>
<path d="M2287 1477 c-11 -29 -9 -43 4 -30 6 6 9 19 7 29 -3 18 -4 18 -11 1z"/>
<path d="M3025 1480 c-19 -8 -19 -9 3 -9 12 -1 22 4 22 9 0 6 -1 10 -2 9 -2 0
-12 -4 -23 -9z"/>
<path d="M2330 1468 c0 -9 5 -20 10 -23 13 -8 13 5 0 25 -8 13 -10 13 -10 -2z"/>
<path d="M4075 1470 c17 -4 39 -8 50 -8 16 0 15 2 -5 8 -14 4 -36 8 -50 8 -22
0 -22 -1 5 -8z"/>
<path d="M4700 1470 c0 -5 5 -10 11 -10 5 0 7 5 4 10 -3 6 -8 10 -11 10 -2 0
-4 -4 -4 -10z"/>
<path d="M2187 1456 c-3 -8 1 -20 9 -26 10 -9 14 -9 14 -1 0 6 -4 11 -10 11
-5 0 -7 7 -4 15 4 8 4 15 1 15 -3 0 -7 -6 -10 -14z"/>
<path d="M2380 1450 c0 -11 4 -20 9 -20 5 0 7 9 4 20 -3 11 -7 20 -9 20 -2 0
-4 -9 -4 -20z"/>
<path d="M2910 1458 c0 -6 -11 -7 -25 -4 -14 4 -25 2 -25 -3 0 -17 -68 -25
-85 -11 -9 7 -19 10 -22 6 -4 -4 -1 -11 6 -15 16 -10 7 -16 -39 -27 -49 -11
-49 -11 -55 -14 -3 -1 -9 -3 -14 -4 -11 -1 -27 -16 -17 -16 3 0 59 15 124 34
64 19 135 38 157 43 34 8 36 10 18 15 -13 3 -23 2 -23 -4z"/>
<path d="M2968 1463 c6 -2 18 -2 25 0 6 3 1 5 -13 5 -14 0 -19 -2 -12 -5z"/>
<path d="M4158 1453 c6 -2 18 -2 25 0 6 3 1 5 -13 5 -14 0 -19 -2 -12 -5z"/>
<path d="M4200 1450 c0 -8 60 -23 67 -17 1 2 -13 8 -32 14 -19 6 -35 8 -35 3z"/>
<path d="M2245 1430 c-8 -13 3 -30 18 -30 8 0 7 3 -2 9 -7 5 -10 14 -7 20 4 6
5 11 2 11 -3 0 -8 -4 -11 -10z"/>
<path d="M2564 1419 c0 -11 6 -15 15 -11 10 4 12 1 6 -9 -7 -12 -6 -12 7 -1
13 10 17 10 20 0 3 -7 7 -8 11 -2 3 6 -9 17 -26 25 -30 13 -33 13 -33 -2z"/>
<path d="M4288 1423 c7 -3 16 -2 19 1 4 3 -2 6 -13 5 -11 0 -14 -3 -6 -6z"/>
<path d="M4766 1417 c3 -10 9 -15 12 -12 3 3 0 11 -7 18 -10 9 -11 8 -5 -6z"/>
<path d="M4405 1389 c101 -32 105 -33 105 -19 0 5 -6 7 -14 4 -8 -3 -17 0 -21
5 -3 6 -11 9 -16 6 -5 -4 -9 -1 -9 6 0 7 -3 10 -6 7 -3 -3 -29 0 -57 8 -87 23
-77 14 18 -17z"/>
<path d="M4629 1403 c-13 -16 -12 -17 4 -4 9 7 17 15 17 17 0 8 -8 3 -21 -13z"/>
<path d="M2300 1401 c0 -5 7 -11 15 -15 8 -3 15 -1 15 3 0 5 -7 11 -15 15 -8
3 -15 1 -15 -3z"/>
<path d="M4695 1400 c3 -5 8 -10 11 -10 2 0 4 5 4 10 0 6 -5 10 -11 10 -5 0
-7 -4 -4 -10z"/>
<path d="M2370 1390 c0 -5 5 -10 10 -10 6 0 10 5 10 10 0 6 -4 10 -10 10 -5 0
-10 -4 -10 -10z"/>
<path d="M2575 1355 c-25 -12 -26 -14 -5 -9 28 7 60 23 45 23 -5 0 -23 -6 -40
-14z"/>
<path d="M4578 1364 c-4 -6 -20 -9 -35 -7 -26 4 -26 3 6 -12 38 -17 44 -15 39
12 -2 11 -6 14 -10 7z"/>
<path d="M3154 1335 c-4 -8 -3 -35 0 -59 6 -39 4 -45 -13 -51 -26 -8 -88 -102
-102 -157 -15 -54 -3 -98 31 -115 33 -17 63 1 94 56 25 46 26 46 26 15 0 -41
25 -64 46 -42 14 13 14 24 0 94 -8 44 -18 116 -22 159 -4 44 -11 88 -16 98
-11 21 -37 22 -44 2z m6 -187 c-1 -11 -31 -101 -40 -117 -15 -29 -30 -26 -30
7 1 38 36 112 55 112 8 0 15 -1 15 -2z"/>
<path d="M2445 1305 c-25 -12 -26 -14 -5 -9 28 7 60 23 45 23 -5 0 -23 -6 -40
-14z"/>
<path d="M4640 1310 c8 -5 20 -10 25 -10 6 0 3 5 -5 10 -8 5 -19 10 -25 10 -5
0 -3 -5 5 -10z"/>
<path d="M4074 1273 c-13 -14 -32 -48 -41 -74 -15 -42 -21 -48 -48 -51 -22 -2
-31 -9 -33 -26 -3 -18 2 -23 28 -28 l31 -7 -8 -61 c-13 -107 -11 -131 13 -134
24 -3 29 8 39 103 4 33 9 68 11 78 7 24 61 22 99 -3 17 -11 43 -20 58 -20 27
0 28 -1 20 -37 -4 -21 -8 -56 -8 -78 0 -36 2 -40 25 -40 23 0 25 4 32 64 4 35
9 70 12 77 3 8 27 14 58 16 49 3 53 5 53 28 0 24 -2 25 -49 22 l-49 -4 8 34
c13 60 11 73 -11 76 -21 3 -38 -24 -46 -73 -5 -30 -70 -33 -98 -5 -16 16 -30
20 -57 17 -35 -5 -35 -5 -29 26 7 35 32 77 46 77 5 0 15 -12 22 -27 17 -35 36
-40 47 -11 10 27 -9 72 -34 82 -34 13 -67 5 -91 -21z"/>
<path d="M4690 1290 c8 -5 20 -10 25 -10 6 0 3 5 -5 10 -8 5 -19 10 -25 10 -5
0 -3 -5 5 -10z"/>
<path d="M2350 1265 c-14 -8 -20 -14 -15 -14 6 0 21 6 35 14 14 8 21 14 15 14
-5 0 -21 -6 -35 -14z"/>
<path d="M4750 1265 c14 -8 30 -14 35 -14 6 0 -1 6 -15 14 -14 8 -29 14 -35
14 -5 0 1 -6 15 -14z"/>
<path d="M3330 1220 c-57 -61 -79 -191 -40 -230 24 -24 32 -25 69 -5 30 15 94
102 88 119 -8 25 -35 13 -66 -29 -31 -43 -61 -59 -61 -32 0 20 28 110 40 127
8 13 11 13 19 1 13 -21 41 -5 41 23 0 28 -24 56 -47 56 -8 0 -28 -14 -43 -30z"/>
<path d="M4830 1230 c19 -11 40 -19 45 -19 6 0 -6 8 -25 19 -19 11 -39 19 -45
19 -5 0 6 -8 25 -19z"/>
<path d="M3572 1215 c-29 -24 -30 -25 -35 -4 -4 15 -12 20 -29 17 -22 -3 -23
-7 -26 -103 -4 -125 1 -147 31 -143 19 3 23 11 27 58 6 55 19 89 47 122 12 13
19 15 33 6 14 -9 22 -9 34 1 21 18 20 27 -4 51 -26 26 -42 25 -78 -5z"/>
<path d="M2188 1189 c-43 -21 -78 -41 -78 -44 0 -5 159 72 169 81 14 13 -25
-2 -91 -37z"/>
<path d="M3789 1188 c-46 -36 -106 -116 -115 -155 -8 -29 20 -63 51 -63 24 0
91 42 112 69 11 14 12 11 13 -20 0 -44 22 -68 45 -49 22 18 21 197 -1 228 -21
31 -55 28 -105 -10z m54 -60 c-20 -34 -88 -98 -103 -98 -17 0 8 41 58 92 49
51 73 55 45 6z"/>
<path d="M4911 1196 c10 -9 169 -86 169 -81 0 5 -156 85 -166 85 -4 0 -5 -2
-3 -4z"/>
<path d="M2334 1175 c-4 -9 7 -64 24 -123 34 -114 33 -121 -19 -143 -37 -15
-42 -10 -65 71 -9 30 -24 63 -34 73 -16 17 -18 17 -33 3 -15 -15 -14 -22 10
-84 38 -100 38 -97 3 -112 -23 -9 -30 -18 -28 -34 2 -17 10 -21 43 -21 39 0
39 0 55 -54 17 -59 41 -84 62 -63 11 11 0 63 -29 139 -3 6 14 21 38 33 47 25
54 20 65 -40 8 -43 21 -60 45 -60 24 0 25 27 3 99 -14 49 -14 54 2 65 22 16
12 46 -15 46 -16 0 -24 14 -41 73 -33 115 -45 142 -63 145 -9 2 -20 -4 -23
-13z"/>
<path d="M2897 1153 c-8 -10 -19 -31 -23 -48 -12 -50 -17 -50 -31 -2 -10 36
-18 47 -34 47 -32 0 -33 -26 -4 -118 45 -143 74 -152 95 -31 17 99 22 100 39
9 14 -75 19 -85 39 -88 34 -5 37 21 14 115 -31 124 -58 157 -95 116z"/>
<path d="M2634 1105 c-34 -35 -74 -123 -81 -182 -13 -110 83 -110 139 0 l21
41 11 -34 c6 -20 19 -36 30 -38 35 -7 38 13 10 94 -32 98 -49 130 -69 138 -27
10 -35 7 -61 -19z m24 -131 c-24 -61 -48 -82 -48 -42 0 24 33 102 53 127 23
27 20 -23 -5 -85z"/>
<path d="M2034 1104 c-18 -14 -18 -15 4 -4 12 6 22 13 22 15 0 8 -5 6 -26 -11z"/>
<path d="M5130 1086 c0 -3 9 -10 20 -16 11 -6 20 -8 20 -6 0 3 -9 10 -20 16
-11 6 -20 8 -20 6z"/>
<path d="M1964 1064 c-18 -14 -18 -15 4 -4 12 6 22 13 22 15 0 8 -5 6 -26 -11z"/>
<path d="M4868 1036 c-18 -38 -26 -44 -60 -49 -98 -13 -211 -122 -191 -184 14
-40 53 -47 108 -18 l44 24 -10 -26 c-13 -35 -4 -55 23 -51 16 2 26 17 40 57
10 30 39 101 64 158 25 57 44 110 40 118 -10 28 -36 15 -58 -29z m-100 -153
c-35 -37 -86 -68 -96 -59 -18 18 98 113 121 99 5 -3 -6 -21 -25 -40z"/>
<path d="M4494 1051 c-43 -26 -81 -78 -89 -121 -12 -63 58 -116 125 -95 33 10
90 65 90 85 0 32 -17 32 -53 0 -55 -48 -115 -38 -100 18 4 16 16 20 65 25 87
8 124 50 80 90 -25 23 -80 21 -118 -2z m63 -37 c-3 -3 -12 -4 -19 -1 -8 3 -5
6 6 6 11 1 17 -2 13 -5z"/>
<path d="M1914 1034 c-18 -14 -18 -15 4 -4 12 6 22 13 22 15 0 8 -5 6 -26 -11z"/>
<path d="M5200 1046 c0 -3 14 -12 30 -21 17 -9 30 -13 30 -11 0 3 -13 12 -30
21 -16 9 -30 13 -30 11z"/>
<path d="M1853 999 c-35 -22 -46 -37 -15 -20 22 13 58 40 52 41 -3 0 -20 -10
-37 -21z"/>
<path d="M5270 1007 c0 -3 34 -26 75 -52 70 -43 74 -48 63 -68 -10 -20 -10
-21 5 -8 25 20 21 34 -21 58 -20 12 -56 34 -79 48 -24 14 -43 24 -43 22z"/>
<path d="M6403 963 c9 -2 23 -2 30 0 6 3 -1 5 -18 5 -16 0 -22 -2 -12 -5z"/>
<path d="M6523 963 c9 -2 25 -2 35 0 9 3 1 5 -18 5 -19 0 -27 -2 -17 -5z"/>
<path d="M578 953 c12 -2 32 -2 45 0 12 2 2 4 -23 4 -25 0 -35 -2 -22 -4z"/>
<path d="M693 953 c9 -2 25 -2 35 0 9 3 1 5 -18 5 -19 0 -27 -2 -17 -5z"/>
<path d="M6358 953 c7 -3 16 -2 19 1 4 3 -2 6 -13 5 -11 0 -14 -3 -6 -6z"/>
<path d="M6598 953 c7 -3 16 -2 19 1 4 3 -2 6 -13 5 -11 0 -14 -3 -6 -6z"/>
<path d="M528 943 c7 -3 16 -2 19 1 4 3 -2 6 -13 5 -11 0 -14 -3 -6 -6z"/>
<path d="M1749 929 l-24 -20 28 17 c15 9 27 18 27 20 0 8 -8 4 -31 -17z"/>
<path d="M6645 940 c27 -12 43 -12 25 0 -8 5 -22 9 -30 9 -10 0 -8 -3 5 -9z"/>
<path d="M488 933 c7 -3 16 -2 19 1 4 3 -2 6 -13 5 -11 0 -14 -3 -6 -6z"/>
<path d="M6258 914 c-38 -20 -36 -28 2 -9 17 9 30 18 30 20 0 7 -1 6 -32 -11z"/>
<path d="M410 910 c-8 -5 -10 -10 -5 -10 6 0 17 5 25 10 8 5 11 10 5 10 -5 0
-17 -5 -25 -10z"/>
<path d="M1711 905 c0 -5 6 -21 14 -35 8 -14 14 -20 14 -15 0 6 -6 21 -14 35
-8 14 -14 21 -14 15z"/>
<path d="M6741 906 c10 -9 69 -36 69 -32 0 6 -55 36 -66 36 -4 0 -5 -2 -3 -4z"/>
<path d="M880 896 c0 -3 14 -12 30 -21 17 -9 30 -13 30 -11 0 3 -13 12 -30 21
-16 9 -30 13 -30 11z"/>
<path d="M324 864 c-18 -14 -18 -15 4 -4 12 6 22 13 22 15 0 8 -5 6 -26 -11z"/>
<path d="M6158 859 c-21 -11 -38 -22 -38 -24 0 -3 18 4 40 15 22 11 40 23 40
25 0 7 0 7 -42 -16z"/>
<path d="M6850 843 c19 -15 60 -50 90 -78 l55 -49 -44 46 c-24 26 -65 61 -90
78 -40 27 -41 27 -11 3z"/>
<path d="M244 810 c-62 -47 -135 -136 -128 -155 3 -7 0 -16 -7 -21 -8 -4 -10
-3 -5 4 4 7 5 12 2 12 -15 0 -61 -115 -77 -195 -25 -120 -25 -120 14 -91 40
31 108 56 151 56 17 0 54 -11 81 -24 49 -23 87 -59 229 -220 64 -72 138 -136
157 -136 4 0 -10 38 -31 85 -88 191 -126 351 -110 465 10 65 20 95 55 150 21
33 30 40 48 36 12 -3 6 2 -13 11 -27 13 -62 17 -150 17 -143 0 -202 -20 -287
-97 -31 -29 -51 -43 -45 -32 15 27 89 104 137 143 22 17 38 31 35 32 -3 0 -28
-18 -56 -40z"/>
<path d="M970 845 c0 -2 18 -14 40 -25 22 -11 40 -18 40 -15 0 2 -18 14 -40
25 -22 11 -40 18 -40 15z"/>
<path d="M3508 843 c50 -3 62 -7 62 -21 0 -14 2 -14 9 -3 5 7 13 11 17 8 5 -3
15 1 22 9 11 12 -1 14 -80 12 -75 -1 -81 -3 -30 -5z"/>
<path d="M3280 831 c0 -8 79 -3 89 5 2 2 -17 4 -42 4 -26 0 -47 -4 -47 -9z"/>
<path d="M3693 834 c9 -9 106 -10 100 -1 -2 4 -27 7 -55 7 -28 0 -49 -3 -45
-6z"/>
<path d="M3213 823 c9 -2 25 -2 35 0 9 3 1 5 -18 5 -19 0 -27 -2 -17 -5z"/>
<path d="M3833 823 c9 -2 25 -2 35 0 9 3 1 5 -18 5 -19 0 -27 -2 -17 -5z"/>
<path d="M3143 813 c9 -2 23 -2 30 0 6 3 -1 5 -18 5 -16 0 -22 -2 -12 -5z"/>
<path d="M3940 807 c30 -6 58 -15 61 -20 4 -5 12 -6 19 -2 8 5 11 4 6 -3 -4
-6 1 -10 12 -9 10 0 19 6 19 13 0 7 -29 16 -68 23 -84 14 -124 12 -49 -2z"/>
<path d="M6585 816 c-5 -2 -22 -7 -38 -10 l-28 -7 30 -37 c106 -132 86 -366
-58 -650 -17 -34 -27 -62 -23 -62 28 0 111 75 207 187 134 155 181 188 269
188 50 0 71 -6 120 -33 l59 -34 -8 49 c-12 87 -27 143 -39 156 -7 7 -11 17 -9
22 4 14 -59 119 -72 118 -5 0 -26 12 -47 28 -74 59 -143 82 -253 86 -55 1
-104 1 -110 -1z m447 -171 c5 -11 -2 -6 -16 10 -14 17 -25 35 -25 40 0 11 25
-20 41 -50z"/>
<path d="M1751 794 c0 -11 3 -14 6 -6 3 7 2 16 -1 19 -3 4 -6 -2 -5 -13z"/>
<path d="M3023 797 c-29 -5 -53 -14 -53 -19 0 -5 3 -7 8 -5 7 5 60 15 110 22
13 2 26 6 30 9 8 8 -33 5 -95 -7z"/>
<path d="M6028 789 c-21 -11 -38 -22 -38 -24 0 -3 18 4 40 15 22 11 40 23 40
25 0 7 0 7 -42 -16z"/>
<path d="M3620 790 c-24 -6 -24 -6 -4 -12 12 -3 27 -2 34 2 18 11 -1 18 -30
10z"/>
<path d="M1080 785 c0 -2 23 -16 50 -30 28 -14 50 -23 50 -20 0 2 -22 16 -50
30 -27 14 -50 23 -50 20z"/>
<path d="M3700 781 c0 -6 4 -13 10 -16 6 -3 7 1 4 9 -7 18 -14 21 -14 7z"/>
<path d="M4078 783 c6 -2 18 -2 25 0 6 3 1 5 -13 5 -14 0 -19 -2 -12 -5z"/>
<path d="M6432 753 c-34 -20 -90 -64 -125 -97 -35 -34 -43 -43 -18 -21 68 60
112 92 172 125 30 16 49 30 44 30 -6 0 -38 -17 -73 -37z"/>
<path d="M2930 776 c0 -2 7 -6 15 -10 8 -3 15 -1 15 4 0 6 -7 10 -15 10 -8 0
-15 -2 -15 -4z"/>
<path d="M3370 768 c0 -5 11 -8 24 -8 14 0 27 3 29 8 3 4 -8 7 -24 7 -16 0
-29 -3 -29 -7z"/>
<path d="M4128 773 c7 -3 16 -2 19 1 4 3 -2 6 -13 5 -11 0 -14 -3 -6 -6z"/>
<path d="M2888 763 c6 -2 18 -2 25 0 6 3 1 5 -13 5 -14 0 -19 -2 -12 -5z"/>
<path d="M3141 754 c0 -11 3 -14 6 -6 3 7 2 16 -1 19 -3 4 -6 -2 -5 -13z"/>
<path d="M3731 753 c-7 -8 -11 -16 -8 -19 2 -2 10 2 17 11 17 20 9 27 -9 8z"/>
<path d="M4168 763 c6 -2 18 -2 25 0 6 3 1 5 -13 5 -14 0 -19 -2 -12 -5z"/>
<path d="M1762 740 c0 -14 2 -19 5 -12 2 6 2 18 0 25 -3 6 -5 1 -5 -13z"/>
<path d="M2993 753 c4 -3 1 -13 -6 -21 -11 -13 -9 -14 10 -2 22 14 22 30 1 30
-6 0 -8 -3 -5 -7z"/>
<path d="M690 748 c3 -3 33 -27 67 -52 35 -25 136 -117 225 -203 90 -87 183
-173 208 -192 37 -27 35 -24 -10 15 -30 27 -120 112 -200 189 -80 77 -165 157
-190 176 -43 35 -110 79 -100 67z"/>
<path d="M4248 743 c7 -3 16 -2 19 1 4 3 -2 6 -13 5 -11 0 -14 -3 -6 -6z"/>
<path d="M5351 734 c0 -11 3 -14 6 -6 3 7 2 16 -1 19 -3 4 -6 -2 -5 -13z"/>
<path d="M2778 733 c7 -3 16 -2 19 1 4 3 -2 6 -13 5 -11 0 -14 -3 -6 -6z"/>
<path d="M3593 718 c-2 -18 0 -20 7 -8 12 18 13 30 2 30 -4 0 -9 -10 -9 -22z"/>
<path d="M3635 730 c-8 -13 5 -13 25 0 13 8 13 10 -2 10 -9 0 -20 -4 -23 -10z"/>
<path d="M4010 731 c0 -17 18 -21 24 -6 3 9 0 15 -9 15 -8 0 -15 -4 -15 -9z"/>
<path d="M1191 726 c2 -2 15 -9 29 -15 24 -11 24 -11 6 3 -16 13 -49 24 -35
12z"/>
<path d="M3367 715 c10 -7 21 -11 25 -9 16 10 7 19 -18 20 -23 2 -24 1 -7 -11z"/>
<path d="M3777 710 c-3 -11 -1 -20 4 -20 5 0 9 9 9 20 0 11 -2 20 -4 20 -2 0
-6 -9 -9 -20z"/>
<path d="M4318 723 c7 -3 16 -2 19 1 4 3 -2 6 -13 5 -11 0 -14 -3 -6 -6z"/>
<path d="M3926 705 c-11 -8 -15 -15 -9 -15 6 0 16 7 23 15 16 19 11 19 -14 0z"/>
<path d="M5870 705 c-14 -8 -20 -14 -14 -15 5 0 19 7 30 15 24 18 16 19 -16 0z"/>
<path d="M3688 703 c-23 -6 -28 -25 -12 -41 12 -11 14 -9 14 7 0 11 8 25 18
30 17 11 10 12 -20 4z"/>
<path d="M3980 692 c6 -13 14 -21 18 -18 3 4 -2 14 -12 24 -18 16 -18 16 -6
-6z"/>
<path d="M4065 699 c-4 -6 -5 -12 -2 -15 2 -3 7 2 10 11 7 17 1 20 -8 4z"/>
<path d="M3346 691 c-7 -11 22 -36 31 -28 3 4 -2 9 -11 13 -9 3 -13 10 -10 15
3 5 3 9 0 9 -3 0 -7 -4 -10 -9z"/>
<path d="M5342 675 c0 -16 2 -22 5 -12 2 9 2 23 0 30 -3 6 -5 -1 -5 -18z"/>
<path d="M1774 580 c0 -63 1 -89 3 -57 2 31 2 83 0 115 -2 31 -3 5 -3 -58z"/>
<path d="M2580 670 c-8 -5 -10 -10 -5 -10 6 0 17 5 25 10 8 5 11 10 5 10 -5 0
-17 -5 -25 -10z"/>
<path d="M3626 672 c-2 -4 -1 -14 3 -21 6 -10 10 -9 14 3 6 16 -8 32 -17 18z"/>
<path d="M3733 673 c-15 -5 -17 -23 -4 -23 5 0 11 7 15 15 3 8 4 15 3 14 -1 0
-8 -3 -14 -6z"/>
<path d="M4510 660 c8 -5 20 -10 25 -10 6 0 3 5 -5 10 -8 5 -19 10 -25 10 -5
0 -3 -5 5 -10z"/>
<path d="M3028 653 c7 -3 16 -2 19 1 4 3 -2 6 -13 5 -11 0 -14 -3 -6 -6z"/>
<path d="M3950 648 c0 -9 5 -20 11 -24 6 -3 9 -15 6 -25 -3 -11 -2 -19 2 -19
16 0 19 13 8 38 -15 37 -27 50 -27 30z"/>
<path d="M1380 630 c19 -11 40 -19 45 -19 6 0 -6 8 -25 19 -19 11 -39 19 -45
19 -5 0 6 -8 25 -19z"/>
<path d="M3327 631 c3 -12 9 -21 14 -21 14 0 11 16 -5 29 -12 10 -13 8 -9 -8z"/>
<path d="M3861 628 c-8 -22 -4 -45 6 -35 6 6 12 57 6 57 -2 0 -7 -10 -12 -22z"/>
<path d="M5720 635 c-14 -8 -20 -14 -15 -14 6 0 21 6 35 14 14 8 21 14 15 14
-5 0 -21 -6 -35 -14z"/>
<path d="M2480 630 c-8 -5 -10 -10 -5 -10 6 0 17 5 25 10 8 5 11 10 5 10 -5 0
-17 -5 -25 -10z"/>
<path d="M3185 630 c3 -5 8 -10 11 -10 2 0 4 5 4 10 0 6 -5 10 -11 10 -5 0 -7
-4 -4 -10z"/>
<path d="M3760 629 c0 -5 5 -7 10 -4 6 3 10 8 10 11 0 2 -4 4 -10 4 -5 0 -10
-5 -10 -11z"/>
<path d="M3807 619 c4 -13 8 -18 11 -10 2 7 -1 18 -6 23 -8 8 -9 4 -5 -13z"/>
<path d="M3912 620 c0 -14 2 -19 5 -12 2 6 2 18 0 25 -3 6 -5 1 -5 -13z"/>
<path d="M3001 619 c-1 -9 7 -23 17 -30 15 -12 16 -12 6 1 -6 8 -14 22 -17 30
-5 13 -6 12 -6 -1z"/>
<path d="M3050 613 c-13 -15 -12 -16 4 -10 10 4 20 7 22 7 2 0 4 5 4 10 0 15
-13 12 -30 -7z"/>
<path d="M3665 621 c-3 -5 0 -13 6 -17 7 -4 9 -3 5 4 -3 5 0 13 6 15 9 4 10 6
1 6 -6 1 -14 -3 -18 -8z"/>
<path d="M4610 620 c8 -5 20 -10 25 -10 6 0 3 5 -5 10 -8 5 -19 10 -25 10 -5
0 -3 -5 5 -10z"/>
<path d="M2430 610 c-8 -5 -10 -10 -5 -10 6 0 17 5 25 10 8 5 11 10 5 10 -5 0
-17 -5 -25 -10z"/>
<path d="M1450 600 c8 -5 20 -10 25 -10 6 0 3 5 -5 10 -8 5 -19 10 -25 10 -5
0 -3 -5 5 -10z"/>
<path d="M3110 600 c-8 -5 -12 -12 -9 -15 4 -3 12 1 19 10 14 17 11 19 -10 5z"/>
<path d="M3250 585 c0 -14 2 -25 4 -25 2 0 6 11 8 25 3 14 1 25 -3 25 -5 0 -9
-11 -9 -25z"/>
<path d="M3290 601 c0 -5 5 -13 10 -16 6 -3 10 -2 10 4 0 5 -4 13 -10 16 -5 3
-10 2 -10 -4z"/>
<path d="M4670 595 c14 -8 30 -14 35 -14 6 0 -1 6 -15 14 -14 8 -29 14 -35 14
-5 0 1 -6 15 -14z"/>
<path d="M3153 585 c-8 -9 -9 -16 -3 -20 6 -3 13 1 16 10 9 21 2 26 -13 10z"/>
<path d="M3201 591 c-10 -7 -11 -13 -2 -27 9 -16 13 -11 10 12 0 4 5 11 13 15
7 5 9 9 3 9 -5 0 -16 -4 -24 -9z"/>
<path d="M3727 593 c-4 -3 -7 -15 -7 -26 0 -25 13 -14 15 13 2 22 1 23 -8 13z"/>
<path d="M5610 590 c-8 -5 -10 -10 -5 -10 6 0 17 5 25 10 8 5 11 10 5 10 -5 0
-17 -5 -25 -10z"/>
<path d="M1500 582 c8 -5 26 -13 40 -16 17 -5 20 -4 10 2 -8 5 -26 13 -40 16
-17 5 -20 4 -10 -2z"/>
<path d="M2340 570 c-19 -11 -30 -19 -25 -19 6 0 26 8 45 19 19 11 31 19 25
19 -5 0 -26 -8 -45 -19z"/>
<path d="M5331 552 c-1 -36 1 -41 13 -30 8 7 10 15 6 18 -4 3 -10 16 -13 30
-3 16 -5 10 -6 -18z"/>
<path d="M6211 567 c-13 -21 -12 -21 5 -5 10 10 16 20 13 22 -3 3 -11 -5 -18
-17z"/>
<path d="M3905 570 c-4 -6 3 -10 14 -10 25 0 27 6 6 13 -8 4 -17 2 -20 -3z"/>
<path d="M3772 558 c6 -18 28 -21 28 -4 0 9 -7 16 -16 16 -9 0 -14 -5 -12 -12z"/>
<path d="M4790 540 c30 -16 60 -29 65 -29 6 0 -15 13 -45 29 -30 16 -59 29
-65 29 -5 0 15 -13 45 -29z"/>
<path d="M1578 553 c7 -3 16 -2 19 1 4 3 -2 6 -13 5 -11 0 -14 -3 -6 -6z"/>
<path d="M3845 550 c-3 -5 -1 -10 4 -10 6 0 11 5 11 10 0 6 -2 10 -4 10 -3 0
-8 -4 -11 -10z"/>
<path d="M5508 553 c7 -3 16 -2 19 1 4 3 -2 6 -13 5 -11 0 -14 -3 -6 -6z"/>
<path d="M3130 540 c-9 -6 -10 -10 -3 -10 6 0 15 5 18 10 8 12 4 12 -15 0z"/>
<path d="M5468 543 c7 -3 16 -2 19 1 4 3 -2 6 -13 5 -11 0 -14 -3 -6 -6z"/>
<path d="M1648 533 c6 -2 18 -2 25 0 6 3 1 5 -13 5 -14 0 -19 -2 -12 -5z"/>
<path d="M5388 533 c12 -2 30 -2 40 0 9 3 -1 5 -23 4 -22 0 -30 -2 -17 -4z"/>
<path d="M6138 498 c-24 -23 -34 -35 -23 -27 30 20 80 69 72 69 -4 0 -26 -19
-49 -42z"/>
<path d="M1713 523 c9 -2 25 -2 35 0 9 3 1 5 -18 5 -19 0 -27 -2 -17 -5z"/>
<path d="M2208 504 c-27 -13 -48 -27 -48 -29 0 -3 23 6 50 20 28 14 50 28 50
30 0 7 1 7 -52 -21z"/>
<path d="M4870 505 c0 -2 23 -16 50 -30 28 -14 50 -23 50 -20 0 2 -22 16 -50
30 -27 14 -50 23 -50 20z"/>
<path d="M1763 415 c0 -22 2 -30 4 -17 2 12 2 30 0 40 -3 9 -5 -1 -4 -23z"/>
<path d="M1992 380 c-62 -38 -142 -90 -179 -115 -50 -35 -68 -43 -74 -33 -6 9
-9 7 -9 -8 0 -20 7 -22 105 -28 57 -4 131 -11 162 -17 125 -22 196 -57 162
-81 -12 -8 -12 -9 1 -5 12 3 14 18 13 63 -2 57 -47 233 -61 244 -4 3 -7 15 -6
28 1 12 1 22 0 22 0 0 -52 -32 -114 -70z"/>
<path d="M5343 410 c0 -25 2 -35 4 -22 2 12 2 32 0 45 -2 12 -4 2 -4 -23z"/>
<path d="M6035 398 l-50 -53 53 50 c48 46 57 55 49 55 -1 0 -25 -24 -52 -52z"/>
<path d="M5007 428 c11 -12 9 -26 -7 -73 -25 -72 -53 -222 -46 -241 3 -8 11
-14 18 -14 9 0 9 3 -2 10 -13 9 -11 13 10 29 35 28 118 48 247 62 82 9 119 9
137 1 23 -10 23 -10 14 31 -13 61 -19 69 -12 17 l6 -44 -33 25 c-83 63 -352
223 -332 197z"/>
<path d="M1752 335 c0 -16 2 -22 5 -12 2 9 2 23 0 30 -3 6 -5 -1 -5 -18z"/>
<path d="M5352 335 c0 -16 2 -22 5 -12 2 9 2 23 0 30 -3 6 -5 -1 -5 -18z"/>
<path d="M5930 309 l-45 -41 42 32 c37 27 61 51 51 50 -2 0 -23 -19 -48 -41z"/>
<path d="M1742 270 c0 -14 2 -19 5 -12 2 6 2 18 0 25 -3 6 -5 1 -5 -13z"/>
<path d="M1244 262 c8 -13 66 -56 66 -49 0 3 -17 17 -37 33 -20 15 -33 23 -29
16z"/>
<path d="M5859 253 c-13 -16 -12 -17 4 -4 16 13 21 21 13 21 -2 0 -10 -8 -17
-17z"/>
<path d="M5805 214 l-30 -26 33 22 c17 12 32 23 32 26 0 7 -4 5 -35 -22z"/>
<path d="M5694 144 c-18 -14 -18 -15 4 -4 12 6 22 13 22 15 0 8 -5 6 -26 -11z"/>
<path d="M1410 146 c0 -3 9 -10 20 -16 11 -6 20 -8 20 -6 0 3 -9 10 -20 16
-11 6 -20 8 -20 6z"/>
<path d="M1460 116 c0 -2 7 -7 16 -10 8 -3 12 -2 9 4 -6 10 -25 14 -25 6z"/>
<path d="M5610 100 c-19 -11 -31 -19 -27 -20 11 0 67 29 67 35 0 7 -1 7 -40
-15z"/>
<path d="M1550 70 c8 -5 20 -10 25 -10 6 0 3 5 -5 10 -8 5 -19 10 -25 10 -5 0
-3 -5 5 -10z"/>
<path d="M5050 70 c8 -5 20 -10 25 -10 6 0 3 5 -5 10 -8 5 -19 10 -25 10 -5 0
-3 -5 5 -10z"/>
<path d="M5540 70 c-8 -5 -10 -10 -5 -10 6 0 17 5 25 10 8 5 11 10 5 10 -5 0
-17 -5 -25 -10z"/>
<path d="M5128 43 c7 -3 16 -2 19 1 4 3 -2 6 -13 5 -11 0 -14 -3 -6 -6z"/>
<path d="M5438 33 c7 -3 16 -2 19 1 4 3 -2 6 -13 5 -11 0 -14 -3 -6 -6z"/>
<path d="M1688 23 c7 -3 16 -2 19 1 4 3 -2 6 -13 5 -11 0 -14 -3 -6 -6z"/>
<path d="M1958 23 c7 -3 16 -2 19 1 4 3 -2 6 -13 5 -11 0 -14 -3 -6 -6z"/>
<path d="M5213 23 c9 -2 23 -2 30 0 6 3 -1 5 -18 5 -16 0 -22 -2 -12 -5z"/>
<path d="M5373 23 c9 -2 23 -2 30 0 6 3 -1 5 -18 5 -16 0 -22 -2 -12 -5z"/>
<path d="M1733 13 c9 -2 23 -2 30 0 6 3 -1 5 -18 5 -16 0 -22 -2 -12 -5z"/>
<path d="M1903 13 c9 -2 23 -2 30 0 6 3 -1 5 -18 5 -16 0 -22 -2 -12 -5z"/>
<path d="M1818 3 c6 -2 18 -2 25 0 6 3 1 5 -13 5 -14 0 -19 -2 -12 -5z"/>
</g>
</svg>
